<svg id="Layer_1" data-name="Layer 1" xmlns="http://www.w3.org/2000/svg" viewBox="0 0 3840 2160">
   <g id="MLOC-mymap">
      <g id="Flat_1_Floor_0"><polygon class="cls-1" points="1548 1221.78 1409.78 1127.7 1409.78 1145.78 1549.04 1243.26 1574.52 1228.15 1548 1221.78"/></g>
      <g id="Flat_1_Floor_1"><polygon class="cls-1" points="1507.33 1188.67 1533.33 1174.44 1544 1180.44 1539.11 1184.22 1541.11 1203.56 1573.11 1221.56 1574.52 1228.15 1548 1221.78 1409.78 1127.7 1409.78 1121.33 1507.33 1188.67"/></g>
      <g id="Flat_1_Floor_2"><polygon class="cls-1" points="1347.33 1077.56 1507.33 1188.67 1533.33 1174.44 1534.67 1168.89 1529.11 1166.22 1529.56 1155.78 1531.56 1156 1529.11 1126.22 1523.7 1123.7 1501.11 1137.56 1342 1032 1349.78 1068.89 1347.33 1069.11 1347.33 1077.56"/></g>
      <g id="Flat_1_Floor_3"><polygon class="cls-1" points="1522.96 1114.07 1525.04 1114.07 1520.87 1086.74 1492.15 1101.93 1334.82 997.93 1342 1032 1501.11 1137.56 1523.7 1123.7 1522.96 1114.07"/></g>
      <g id="Flat_1_Floor_4"><polygon class="cls-1" points="1514.67 1040.89 1486.52 1056.3 1327.11 955.56 1332.44 986.37 1328.59 986.37 1329.48 994.96 1334.82 997.93 1492.15 1101.93 1520.87 1086.74 1514.67 1040.89"/></g>
      <g id="Flat_1_Floor_5"><polygon class="cls-1" points="1508.03 987.43 1479.7 1000.89 1343.41 917.63 1325.33 925.63 1327.11 938.37 1324.67 938.33 1324.67 942.11 1319.89 943 1320.44 951.56 1327.11 955.56 1486.52 1056.3 1514.67 1040.89 1508.03 987.43"/></g>
      <g id="Flat_1_Floor_6"><polygon class="cls-1" points="1471.33 952.22 1334.82 871.56 1314.89 880 1317.11 893.33 1314.89 893.56 1314.89 902.22 1343.41 917.63 1479.7 1000.89 1508.03 987.43 1500.89 981.33 1501.33 971.56 1504.22 971.11 1500.22 938.47 1471.33 952.22"/></g>
      <g id="Flat_1_Floor_7"><polygon class="cls-1" points="1463.56 912 1318.67 828 1305.56 833.78 1305.56 855.11 1334.82 871.56 1471.33 952.22 1500.22 938.47 1492.69 896.22 1463.56 912"/></g>
      <g id="Flat_1_Floor_8"><polygon class="cls-1" points="1454.89 849.78 1319.11 775.33 1295.78 784.44 1297.78 798.89 1295.78 798.89 1295.78 802 1289.78 803.78 1289.78 812.56 1318.67 828 1463.56 912 1492.69 896.22 1483.73 836.86 1454.89 849.78"/></g>
      <g id="Flat_1_Floor_9"><polygon class="cls-1" points="1446 795.78 1309.56 724 1284.67 734.22 1286.89 747.78 1284.67 749.33 1286.22 758.67 1319.11 775.33 1454.89 849.78 1483.73 836.86 1476.44 784 1446 795.78"/></g>
      <g id="Flat_1_Floor_10"><polygon class="cls-1" points="1437.56 739.11 1300.89 672 1273.56 681.78 1276.89 696.89 1273.56 697.56 1274.44 705.56 1309.56 724 1446 795.78 1476.44 784 1467.71 728.37 1437.56 739.11"/></g>
      <g id="Flat_1_Floor_11"><polygon class="cls-1" points="1428 681.33 1295.33 618 1263.11 628.44 1265.11 642.89 1263.11 643.33 1263.11 653.11 1300.89 672 1437.56 739.11 1467.71 728.37 1465.78 711.78 1460.44 709.33 1460.44 697.33 1463.78 697.33 1460.22 668.67 1428 681.33"/></g>
      <g id="Flat_1_Floor_12"><polygon class="cls-1" points="1418.67 630.22 1274.89 565.78 1252.67 572 1252.67 588 1251.56 589.11 1252.67 599.56 1295.33 618 1428 681.33 1460.22 668.67 1452 618 1418.67 630.22"/></g>
      <g id="Flat_1_Floor_13"><polygon class="cls-1" points="1408 557.78 1227.78 483.11 1238.67 537.11 1234.22 538.44 1234.89 549.33 1274.89 565.78 1418.67 630.22 1452 618 1440.72 548.34 1408 557.78"/></g>
      <g id="Flat_1_Floor_14"><polygon class="cls-1" points="1398.33 490.76 1212.89 417.11 1227.78 483.11 1408 557.78 1440.72 548.34 1434.47 479.38 1398.33 490.76"/></g>
      
      <g id="Flat_6_Floor_0"><polygon class="cls-1" points="2579.33 1002.22 2581.11 986.67 2499.56 1045.33 2499.56 1067.56 2579.33 1002.22"/></g>
      <g id="Flat_6_Floor_1"><polygon class="cls-1" points="2581.11 976 2581.11 986.67 2499.56 1045.33 2502.22 1022.52 2518.52 1027.11 2581.11 976"/></g>
      <g id="Flat_6_Floor_2"><polygon class="cls-1" points="2642.37 925.63 2518.52 1027.11 2502.22 1022.52 2511.11 976 2525.93 981.93 2627.22 901.78 2638.22 905 2637 919 2641 920.44 2642.37 925.63"/></g>
      <g id="Flat_6_Floor_3"><polygon class="cls-1" points="2645.78 886.22 2525.93 981.93 2511.11 976 2519.56 939.33 2536.44 946.67 2638.22 867.33 2648.44 867.33 2645.78 886.22"/></g>
      <g id="Flat_6_Floor_4"><polygon class="cls-1" points="2661.56 848.89 2536.44 946.67 2519.56 939.33 2527.78 897.78 2545.11 904.22 2648.44 827.26 2657.18 828.59 2656.3 841.18 2661.56 840.44 2661.56 848.89"/></g>
      <g id="Flat_6_Floor_5"><polygon class="cls-1" points="2556.44 854.89 2538.44 848.89 2527.78 897.78 2545.11 904.22 2671.56 809.56 2671.56 800.89 2667.78 800.89 2665.56 798.44 2668.44 787.56 2652.44 782 2556.44 854.89"/></g>
      <g id="Flat_6_Floor_6"><polygon class="cls-1" points="2680 760 2556.44 854.89 2538.44 848.89 2542 832.22 2545.78 830.44 2547.33 820.89 2544.89 821.11 2547.78 802.89 2564.89 807.44 2661.56 739.11 2678.89 745.56 2677.11 756.44 2680 760"/></g>
      <g id="Flat_6_Floor_7"><polygon class="cls-1" points="2688.22 719.78 2564.89 807.44 2547.78 802.89 2556.44 763.61 2576.67 768.89 2677.78 698.22 2690 701.33 2688.22 719.78"/></g>
      <g id="Flat_6_Floor_8"><polygon class="cls-1" points="2703.11 681.78 2576.67 768.89 2556.44 763.61 2568.22 708 2585.56 712.89 2680.89 650.22 2700.22 655.56 2698.89 668.89 2704 672.89 2703.11 681.78"/></g>
      <g id="Flat_6_Floor_9"><polygon class="cls-1" points="2712 630 2585.56 712.89 2568.22 708 2578.67 658.67 2596.89 663.33 2690 604 2712 609.56 2712 630"/></g>
      <g id="Flat_6_Floor_10"><polygon class="cls-1" points="2589.93 608 2607.11 611.85 2702.22 556.15 2725.33 561.78 2724.15 582.52 2690 604 2596.89 663.33 2578.67 658.67 2589.93 608"/></g>
      <g id="Flat_6_Floor_11"><polygon class="cls-1" points="2618.89 559.41 2601.63 554.37 2598.37 570.82 2600.3 570.82 2599.85 579.56 2594.67 581.18 2589.93 608 2607.11 611.85 2702.22 556.15 2735.7 536.44 2736.44 527.7 2734.37 527.7 2736.44 513.78 2710.07 507.41 2618.89 559.41"/></g>
      <g id="Flat_6_Floor_12"><polygon class="cls-1" points="2632.3 511.7 2611.11 506.22 2601.63 554.37 2618.89 559.41 2710.07 507.41 2748.59 484.74 2749.33 476.3 2746.82 477.04 2749.33 463.11 2730.37 458.96 2632.3 511.7"/></g>
      <g id="Flat_6_Floor_13"><polygon class="cls-1" points="2765.11 440.22 2632.3 511.7 2611.11 506.22 2623.11 444.22 2646 447.33 2760.22 389.56 2752.22 431.56 2766.44 428 2765.11 440.22"/></g>
      <g id="Flat_6_Floor_14"><polygon class="cls-1" points="2658.67 382.89 2774.89 332.22 2770.89 358.89 2766.44 386.44 2646 447.33 2623.11 444.22 2638.16 379.44 2658.67 382.89"/></g>
      
      <g id="Flat_7_Floor_0"><polygon class="cls-1" points="2348.89 1161.78 2499.56 1051.56 2499.56 1067.56 2348.89 1189.78 2348.89 1161.78"/></g>
      <g id="Flat_7_Floor_1"><polygon class="cls-1" points="2496 1034.89 2375.78 1137.33 2352.44 1132.67 2348.89 1161.78 2499.56 1051.56 2500.78 1034.89 2496 1034.89"/></g>
      <g id="Flat_7_Floor_2"><polygon class="cls-1" points="2381.11 1106.89 2358.22 1096.89 2352.44 1132.67 2375.78 1137.33 2500.78 1030.89 2505.16 1007.12 2381.11 1106.89"/></g>
      <g id="Flat_7_Floor_3"><polygon class="cls-1" points="2388.67 1063.56 2365.78 1055.33 2358.22 1096.89 2381.11 1106.89 2505.16 1007.12 2513.55 965.43 2388.67 1063.56"/></g>
      <g id="Flat_7_Floor_4"><polygon class="cls-1" points="2395.56 1011.56 2374 1002.67 2365.78 1055.33 2388.67 1063.56 2513.55 965.43 2524.98 911.93 2395.56 1011.56"/></g>
      <g id="Flat_7_Floor_5"><polygon class="cls-1" points="2402.89 965.43 2381.56 957.33 2374 1002.67 2395.56 1011.56 2524.98 911.93 2534.42 867.33 2402.89 965.43"/></g>
      <g id="Flat_7_Floor_6"><polygon class="cls-1" points="2412.22 924.63 2388.44 916.44 2381.56 957.33 2402.89 965.43 2534.42 867.33 2542 832.22 2412.22 924.63"/></g>
      <g id="Flat_7_Floor_7"><polygon class="cls-1" points="2421.33 867.33 2396.44 859.56 2388.44 916.44 2412.22 924.63 2542 832.22 2545.78 830.44 2547.33 820.89 2544.89 821.11 2553.51 776.93 2421.33 867.33"/></g>
      <g id="Flat_7_Floor_8"><polygon class="cls-1" points="2430.22 815.78 2406 808.44 2396.44 859.56 2421.33 867.33 2553.51 776.93 2564.36 726.25 2430.22 815.78"/></g>
      <g id="Flat_7_Floor_9"><polygon class="cls-1" points="2439.11 762.89 2413.78 756.22 2406 808.44 2430.22 815.78 2564.36 726.25 2574.99 676.02 2439.11 762.89"/></g>
      <g id="Flat_7_Floor_10"><polygon class="cls-1" points="2447.33 707.78 2423.33 701.11 2413.78 756.22 2439.11 762.89 2574.99 676.02 2585.93 625.98 2447.33 707.78"/></g>
      <g id="Flat_7_Floor_11"><polygon class="cls-1" points="2457.78 659.56 2431.56 652.44 2429.56 667.11 2432.22 667.11 2430.67 678.44 2427.11 678.44 2423.33 701.11 2447.33 707.78 2585.93 625.98 2594.67 581.18 2457.78 659.56"/></g>
      <g id="Flat_7_Floor_12"><polygon class="cls-1" points="2469.33 591.56 2608.92 517.34 2598.37 570.82 2600.3 570.82 2599.85 579.56 2594.67 581.18 2457.78 659.56 2431.56 652.44 2442.44 584.44 2469.33 591.56"/></g>
      <g id="Flat_7_Floor_13"><polygon class="cls-1" points="2479.11 530 2620 460.31 2608.92 517.34 2469.33 591.56 2442.44 584.44 2451.33 524.44 2479.11 530"/></g>
      <g id="Flat_7_Floor_14"><polygon class="cls-1" points="2488.44 463.11 2606.89 409.78 2630.22 413.6 2620 460.31 2479.11 530 2451.33 524.44 2463.11 456.89 2488.44 463.11"/></g>
      
      <g id="Flat_8_Floor_0"><polygon class="cls-1" points="2348.89 1171.11 2166.67 1314.96 2166.67 1343.11 2348.89 1189.78 2348.89 1171.11"/></g>
      <g id="Flat_8_Floor_1"><polygon class="cls-1" points="2169.78 1269.63 2166.67 1314.96 2348.89 1171.11 2348.89 1158.82 2196.15 1285.93 2169.78 1269.63"/></g>
      <g id="Flat_8_Floor_2"><polygon class="cls-1" points="2200.89 1251.26 2172.89 1236.89 2169.78 1269.63 2196.15 1285.93 2348.89 1158.82 2352.44 1128.44 2200.89 1251.26"/></g>
      <g id="Flat_8_Floor_3"><polygon class="cls-1" points="2207.11 1207.18 2178.44 1191.11 2172.89 1236.89 2200.89 1251.26 2352.44 1128.44 2360.22 1085.9 2207.11 1207.18"/></g>
      <g id="Flat_8_Floor_4"><polygon class="cls-1" points="2213.11 1149.56 2184.89 1137.33 2178.44 1191.11 2207.11 1207.18 2360.22 1085.9 2369.85 1029.9 2213.11 1149.56"/></g>
      <g id="Flat_8_Floor_5"><polygon class="cls-1" points="2220 1101.33 2190.44 1088.67 2184.89 1137.33 2213.11 1149.56 2369.85 1029.9 2376.91 985.23 2220 1101.33"/></g>
      <g id="Flat_8_Floor_6"><polygon class="cls-1" points="2223.56 1060 2193.11 1046.44 2190.44 1088.67 2220 1101.33 2376.91 985.23 2383.52 945.7 2223.56 1060"/></g>
      <g id="Flat_8_Floor_7"><polygon class="cls-1" points="2230.89 997.78 2199.33 985.23 2193.11 1046.44 2223.56 1060 2383.52 945.7 2391.6 887.11 2230.89 997.78"/></g>
      <g id="Flat_8_Floor_8"><polygon class="cls-1" points="2235.11 943.33 2201.43 932.43 2199.33 985.23 2230.89 997.78 2391.6 887.11 2400.65 837.01 2235.11 943.33"/></g>
      <g id="Flat_8_Floor_9"><polygon class="cls-1" points="2242 887.11 2206.69 873.64 2201.43 932.43 2235.11 943.33 2400.65 837.01 2409.72 783.46 2242 887.11"/></g>
      <g id="Flat_8_Floor_10"><polygon class="cls-1" points="2248.44 828.22 2214 815.78 2206.69 873.64 2242 887.11 2409.72 783.46 2418.92 726.25 2248.44 828.22"/></g>
      <g id="Flat_8_Floor_11"><polygon class="cls-1" points="2255.33 776.93 2220.67 762.89 2214 815.78 2248.44 828.22 2418.92 726.25 2427.11 678.44 2255.33 776.93"/></g>
      <g id="Flat_8_Floor_12"><polygon class="cls-1" points="2264.89 700.44 2227.33 690.22 2225.78 719.78 2228.67 718.67 2227.56 732 2224 733.11 2220.67 762.89 2255.33 776.93 2427.11 678.44 2430.67 678.44 2432.22 667.11 2429.56 667.11 2438.71 607.53 2264.89 700.44"/></g>
      <g id="Flat_8_Floor_13"><polygon class="cls-1" points="2271.33 632.89 2448 546.94 2438.71 607.53 2264.89 700.44 2227.33 690.22 2234.89 621.98 2271.33 632.89"/></g>
      <g id="Flat_8_Floor_14"><polygon class="cls-1" points="2280.22 560.22 2458.67 478.67 2448 546.94 2271.33 632.89 2234.89 621.98 2242.54 546.94 2280.22 560.22"/></g>
     
      <g id="Flat_9_Floor_0"><polygon class="cls-1" points="1760.3 1381.93 1947.56 1505.48 2166.67 1332.44 2166.67 1343.11 1948.74 1523.85 1760.3 1396.44 1760.3 1381.93"/></g>
      <g id="Flat_9_Floor_1"><polygon class="cls-1" points="1760.3 1362.96 1760.3 1381.93 1947.56 1505.48 2166.67 1332.44 2166.67 1320 1952.59 1497.18 1760.3 1362.96"/></g>
      <g id="Flat_9_Floor_2"><polygon class="cls-1" points="1953.78 1443.85 1721.48 1288.3 1724.15 1340.15 1952.59 1497.18 2166.67 1320 2170.12 1266.05 1953.78 1443.85"/></g>
      <g id="Flat_9_Floor_3"><polygon class="cls-1" points="1953.78 1404.74 1718.22 1249.78 1721.48 1288.3 1953.78 1443.85 2170.12 1266.05 2173.41 1232.57 1953.78 1404.74"/></g>
      <g id="Flat_9_Floor_4"><polygon class="cls-1" points="1954.37 1354.96 1715.26 1202.37 1718.22 1241.18 1715.26 1240 1715.26 1248.3 1718.22 1249.78 1953.78 1404.74 2173.41 1232.57 2178.44 1186.07 1954.37 1354.96"/></g>
      <g id="Flat_9_Floor_5"><polygon class="cls-1" points="1955.26 1293.04 1710.22 1145.78 1715.35 1203.59 1954.37 1354.96 2178.44 1186.07 2186.12 1126.56 1955.26 1293.04"/></g>
      <g id="Flat_9_Floor_6"><polygon class="cls-1" points="1953.78 1240.76 1706.37 1092.74 1710.22 1145.78 1955.26 1293.04 2186.12 1126.56 2190.44 1072 1953.78 1240.76"/></g>
      <g id="Flat_9_Floor_7"><polygon class="cls-1" points="1956.74 1194.07 1702.52 1048.89 1706.37 1092.74 1953.78 1240.76 2190.44 1072 2193.11 1032.89 1956.74 1194.07"/></g>
      <g id="Flat_9_Floor_8"><polygon class="cls-1" points="1957.93 1126.56 1697.78 984.59 1702.52 1036.15 1699.85 1037.93 1701.04 1048.59 1702.52 1048.89 1956.74 1194.07 2194.49 1032.89 2196.74 1031.11 2196.74 1021.63 2199.33 964.44 1957.93 1126.56"/></g>
      <g id="Flat_9_Floor_9"><polygon class="cls-1" points="1957.63 1064.59 1692.44 925.93 1697.78 984.59 1957.93 1126.56 2199.33 964.44 2202.96 909.04 1957.63 1064.59"/></g>
      <g id="Flat_9_Floor_10"><polygon class="cls-1" points="1957.74 1001.07 1688.44 867.11 1692.44 925.93 1957.63 1064.59 2202.96 909.04 2209.3 852.94 1957.74 1001.07"/></g>
      <g id="Flat_9_Floor_11"><polygon class="cls-1" points="1960.3 933.63 1683.26 802.67 1688.44 867.11 1957.74 1001.07 2209.3 852.94 2217.51 787.93 1960.3 933.63"/></g>
      <g id="Flat_9_Floor_12"><polygon class="cls-1" points="1962.96 874.67 1678.52 747.85 1683.26 802.67 1960.3 933.63 2217.51 787.93 2224 733.11 1962.96 874.67"/></g>
      <g id="Flat_9_Floor_13"><polygon class="cls-1" points="1965.33 789.63 1672.89 669.63 1678.52 733.11 1674.67 733.11 1674.67 746.96 1678.52 747.85 1962.96 874.67 2227.56 732 2228.67 718.67 2225.86 718.24 2231.16 654.55 1965.33 789.63"/></g>
      <g id="Flat_9_Floor_14"><polygon class="cls-1" points="1964.74 708.15 1666.96 595.26 1672.89 669.63 1965.33 789.63 2231.16 654.55 2239.17 580.22 1964.74 708.15"/></g>
      
      <g id="Flat_10_Floor_0"><polygon class="cls-1" points="1577.11 1243.26 1717.11 1336.89 1723.9 1335.33 1724.15 1340.15 1743.18 1353.23 1729.56 1364.44 1577.11 1263.56 1577.11 1243.26"/></g>
      <g id="Flat_10_Floor_1"><polygon class="cls-1" points="1717.11 1287.11 1688.22 1305.11 1588.22 1236.44 1588.22 1228.15 1574.52 1222.89 1577.11 1243.26 1717.11 1336.89 1723.9 1335.33 1721.23 1285.31 1717.11 1287.11"/></g>
      <g id="Flat_10_Floor_2"><polygon class="cls-1" points="1687.33 1270.89 1534.67 1168.89 1533.33 1174.44 1544 1180.44 1539.11 1184.22 1541.11 1203.56 1588.22 1229.11 1588.22 1236.44 1688.22 1305.11 1721.23 1285.31 1718.22 1251.56 1687.33 1270.89"/></g>
      <g id="Flat_10_Floor_3"><polygon class="cls-1" points="1682.22 1225.33 1529.11 1126.22 1531.56 1156 1529.56 1155.78 1529.11 1166.22 1534.67 1168.89 1687.33 1270.89 1718.22 1249.78 1715.35 1203.59 1682.22 1225.33"/></g>
      <g id="Flat_10_Floor_4"><polygon class="cls-1" points="1676.09 1169.55 1518.3 1067.74 1525.04 1114.07 1522.96 1114.07 1523.7 1123.7 1682.22 1225.33 1715.35 1203.59 1710.7 1151.13 1676.09 1169.55"/></g>
      <g id="Flat_10_Floor_5"><polygon class="cls-1" points="1672.22 1120.22 1512.36 1022.29 1518.3 1067.74 1676.09 1169.55 1710.7 1151.13 1706.95 1100.85 1672.22 1120.22"/></g>
      <g id="Flat_10_Floor_6"><polygon class="cls-1" points="1668.22 1080 1508.03 984.44 1512.36 1022.29 1672.22 1120.22 1706.95 1100.85 1703.57 1060.91 1668.22 1080"/></g>
      <g id="Flat_10_Floor_7"><polygon class="cls-1" points="1662.67 1016.22 1497.34 922.3 1504.22 971.11 1501.33 971.56 1500.89 981.33 1668.22 1080 1703.57 1060.91 1702.52 1048.89 1699.08 997.93 1662.67 1016.22"/></g>
      <g id="Flat_10_Floor_8"><polygon class="cls-1" points="1656.89 961.11 1488.55 868.81 1497.34 922.3 1662.67 1016.22 1699.08 997.93 1694.22 945.51 1656.89 961.11"/></g>
      <g id="Flat_10_Floor_9"><polygon class="cls-1" points="1652.44 904.22 1480.35 812.34 1488.55 868.81 1656.89 961.11 1694.22 945.51 1689.78 886.72 1652.44 904.22"/></g>
      <g id="Flat_10_Floor_10"><polygon class="cls-1" points="1646.44 843.67 1471.9 757.69 1480.35 812.34 1652.44 904.22 1689.78 886.72 1685.17 826.18 1646.44 843.67"/></g>
      <g id="Flat_10_Floor_11"><polygon class="cls-1" points="1640.67 795.78 1465.78 711.78 1471.9 757.69 1646.44 843.67 1685.17 826.18 1681.1 777.72 1640.67 795.78"/></g>
      <g id="Flat_10_Floor_12"><polygon class="cls-1" points="1630.53 715.92 1455.02 636.61 1463.78 697.33 1460.44 697.33 1460.44 709.33 1465.78 711.78 1640.67 795.78 1681.1 777.72 1678.52 747.85 1675.66 698.88 1630.53 715.92"/></g>
      <g id="Flat_10_Floor_13"><polygon class="cls-1" points="1624 648 1444.77 572.36 1455.02 636.61 1630.53 715.92 1675.66 698.88 1669.92 632.45 1624 648"/></g>
      <g id="Flat_10_Floor_14"><polygon class="cls-1" points="1619.78 574.22 1436.08 505.11 1444.77 572.36 1624 648 1669.92 632.45 1664.65 561.52 1619.78 574.22"/></g>
   </g>
</svg>